0
SECTION
2
HEADER
9
$INSUNITS
70
4
9
$ACADVER
1
AC1014
9
$HANDSEED
5
FFFF
0
ENDSEC
0
SECTION
2
TABLES
0
TABLE
2
VPORT
5
8
100
AcDbSymbolTable
0
ENDTAB
0
TABLE
2
LTYPE
5
5
100
AcDbSymbolTable
0
LTYPE
5
14
100
AcDbSymbolTableRecord
100
AcDbLinetypeTableRecord
2
BYBLOCK
70
0
0
LTYPE
5
15
100
AcDbSymbolTableRecord
100
AcDbLinetypeTableRecord
2
BYLAYER
70
0
0
ENDTAB
0
TABLE
2
LAYER
5
2
100
AcDbSymbolTable
70
2
0
LAYER
5
50
100
AcDbSymbolTableRecord
100
AcDbLayerTableRecord
2
0
70
0
6
CONTINUOUS
0
ENDTAB
0
TABLE
2
STYLE
5
3
100
AcDbSymbolTable
70
1
0
STYLE
5
11
100
AcDbSymbolTableRecord
100
AcDbTextStyleTableRecord
2
STANDARD
70
0
0
ENDTAB
0
TABLE
2
VIEW
5
6
100
AcDbSymbolTable
70
0
0
ENDTAB
0
TABLE
2
UCS
5
7
100
AcDbSymbolTable
70
0
0
ENDTAB
0
TABLE
2
APPID
5
9
100
AcDbSymbolTable
70
2
0
APPID
5
12
100
AcDbSymbolTableRecord
100
AcDbRegAppTableRecord
2
ACAD
70
0
0
ENDTAB
0
TABLE
2
DIMSTYLE
5
A
100
AcDbSymbolTable
70
1
0
ENDTAB
0
TABLE
2
BLOCK_RECORD
5
1
100
AcDbSymbolTable
70
1
0
BLOCK_RECORD
5
1F
100
AcDbSymbolTableRecord
100
AcDbBlockTableRecord
2
*MODEL_SPACE
0
BLOCK_RECORD
5
1B
100
AcDbSymbolTableRecord
100
AcDbBlockTableRecord
2
*PAPER_SPACE
0
ENDTAB
0
ENDSEC
0
SECTION
2
BLOCKS
0
BLOCK
5
20
100
AcDbEntity
100
AcDbBlockBegin
2
*MODEL_SPACE
0
ENDBLK
5
21
100
AcDbEntity
100
AcDbBlockEnd
0
BLOCK
5
1C
100
AcDbEntity
100
AcDbBlockBegin
2
*PAPER_SPACE
0
ENDBLK
5
1D
100
AcDbEntity
100
AcDbBlockEnd
0
ENDSEC
0
SECTION
2
ENTITIES
0
CIRCLE
5
100
100
AcDbEntity
8
0
100
AcDbCircle
10
-45.599999999999994
20
-11.700000000000006
30
0
40
0.99999999999999645
210
0
220
0
230
1
0
CIRCLE
5
101
100
AcDbEntity
8
0
100
AcDbCircle
10
-45.599999999999994
20
-4.4247385563841531e-15
30
0
40
0.99999999999999645
210
0
220
0
230
1
0
CIRCLE
5
102
100
AcDbEntity
8
0
100
AcDbCircle
10
-45.599999999999994
20
11.699999999999998
30
0
40
0.99999999999999645
210
0
220
0
230
1
0
LWPOLYLINE
5
103
100
AcDbEntity
8
0
100
AcDbPolyline
90
30
70
1
43
0.0
10
-0.69999999999999118
20
-20.143055403769104
42
0.2982166266986071
10
-1.2999999999999912
20
-21.059570542760273
10
-1.2999999999999927
20
-22.000000000000007
42
0.41421356237309231
10
-0.29999999999999349
20
-23.000000000000007
10
48
20
-23.000000000000007
42
0.41421356237309176
10
50
20
-21.000000000000007
10
50
20
-9.8499999999999979
42
0.4142135623730947
10
48.000000000000007
20
-7.8499999999999996
10
37.300000000000004
20
-7.8499999999999996
42
-0.41421356237309492
10
35.300000000000004
20
-5.8499999999999988
10
35.300000000000004
20
5.8500000000000005
42
-0.41421356237309515
10
37.300000000000004
20
7.8500000000000014
10
48
20
7.8500000000000023
42
0.41421356237309409
10
50
20
9.8500000000000032
10
50
20
20.999999999999996
42
0.41421356237309243
10
48.000000000000007
20
23
10
-48.000000000000007
20
23
42
0.41421356237309243
10
-50.000000000000007
20
20.999999999999996
10
-50
20
-21.000000000000007
42
0.41421356237309243
10
-48.000000000000007
20
-23.000000000000007
10
-3.6999999999999922
20
-23.000000000000007
42
0.41421356237309448
10
-2.6999999999999931
20
-22.000000000000011
10
-2.6999999999999931
20
-21.059570542760273
42
0.29821662669860743
10
-3.2999999999999927
20
-20.1430554037691
42
-0.29821662669860699
10
-4.4999999999999938
20
-18.310025125786765
10
-4.4999999999999929
20
-9.3000000000000043
42
-0.41421356237309515
10
-2.4999999999999925
20
-7.3000000000000043
10
-1.4999999999999929
20
-7.3000000000000043
42
-0.41421356237309509
10
0.50000000000000711
20
-9.3000000000000043
10
0.50000000000001055
20
-18.310025125786765
42
-0.29821662669860699
0
CIRCLE
5
104
100
AcDbEntity
8
0
100
AcDbCircle
10
47.300000000000004
20
20.300000000000004
30
0
40
1.6999999999999993
210
0
220
0
230
1
0
CIRCLE
5
105
100
AcDbEntity
8
0
100
AcDbCircle
10
-47.300000000000004
20
20.300000000000004
30
0
40
1.6999999999999993
210
0
220
0
230
1
0
CIRCLE
5
106
100
AcDbEntity
8
0
100
AcDbCircle
10
47.300000000000004
20
-20.300000000000004
30
0
40
1.6999999999999993
210
0
220
0
230
1
0
LWPOLYLINE
5
107
100
AcDbEntity
8
0
100
AcDbPolyline
90
4
70
1
43
0.0
10
18.800000000000001
20
2.4999999999999982
42
0.99999999999999989
10
15.300000000000001
20
2.5000000000000004
10
15.299999999999995
20
-2.5000000000000018
42
0.99999999999999989
10
18.799999999999997
20
-2.4999999999999996
0
CIRCLE
5
108
100
AcDbEntity
8
0
100
AcDbCircle
10
-47.300000000000004
20
-20.300000000000004
30
0
40
1.6999999999999993
210
0
220
0
230
1
0
LWPOLYLINE
5
109
100
AcDbEntity
8
0
100
AcDbPolyline
90
4
70
1
43
0.0
10
25.300000000000011
20
2.4999999999999925
42
0.99999999999999989
10
21.79999999999999
20
2.5000000000000142
10
21.800000000000001
20
-2.4999999999999973
42
0.99999999999999989
10
25.300000000000004
20
-2.4999999999999907
0
LWPOLYLINE
5
110
100
AcDbEntity
8
0
100
AcDbPolyline
90
4
70
1
43
0.0
10
12.300000000000001
20
2.4999999999999969
42
0.99999999999999989
10
8.7999999999999989
20
2.4999999999999964
10
8.8000000000000043
20
-2.5000000000000027
42
0.99999999999999989
10
12.300000000000001
20
-2.5000000000000044
0
ENDSEC
0
SECTION
2
OBJECTS
0
DICTIONARY
5
C
100
AcDbDictionary
3
ACAD_GROUP
350
D
3
ACAD_MLINESTYLE
350
17
0
DICTIONARY
5
D
100
AcDbDictionary
0
DICTIONARY
5
1A
330
C
100
AcDbDictionary
0
DICTIONARY
5
17
100
AcDbDictionary
0
ENDSEC
0
EOF
