0
SECTION
2
HEADER
9
$INSUNITS
70
4
9
$ACADVER
1
AC1014
9
$HANDSEED
5
FFFF
0
ENDSEC
0
SECTION
2
TABLES
0
TABLE
2
VPORT
5
8
100
AcDbSymbolTable
0
ENDTAB
0
TABLE
2
LTYPE
5
5
100
AcDbSymbolTable
0
LTYPE
5
14
100
AcDbSymbolTableRecord
100
AcDbLinetypeTableRecord
2
BYBLOCK
70
0
0
LTYPE
5
15
100
AcDbSymbolTableRecord
100
AcDbLinetypeTableRecord
2
BYLAYER
70
0
0
ENDTAB
0
TABLE
2
LAYER
5
2
100
AcDbSymbolTable
70
2
0
LAYER
5
50
100
AcDbSymbolTableRecord
100
AcDbLayerTableRecord
2
0
70
0
6
CONTINUOUS
0
ENDTAB
0
TABLE
2
STYLE
5
3
100
AcDbSymbolTable
70
1
0
STYLE
5
11
100
AcDbSymbolTableRecord
100
AcDbTextStyleTableRecord
2
STANDARD
70
0
0
ENDTAB
0
TABLE
2
VIEW
5
6
100
AcDbSymbolTable
70
0
0
ENDTAB
0
TABLE
2
UCS
5
7
100
AcDbSymbolTable
70
0
0
ENDTAB
0
TABLE
2
APPID
5
9
100
AcDbSymbolTable
70
2
0
APPID
5
12
100
AcDbSymbolTableRecord
100
AcDbRegAppTableRecord
2
ACAD
70
0
0
ENDTAB
0
TABLE
2
DIMSTYLE
5
A
100
AcDbSymbolTable
70
1
0
ENDTAB
0
TABLE
2
BLOCK_RECORD
5
1
100
AcDbSymbolTable
70
1
0
BLOCK_RECORD
5
1F
100
AcDbSymbolTableRecord
100
AcDbBlockTableRecord
2
*MODEL_SPACE
0
BLOCK_RECORD
5
1B
100
AcDbSymbolTableRecord
100
AcDbBlockTableRecord
2
*PAPER_SPACE
0
ENDTAB
0
ENDSEC
0
SECTION
2
BLOCKS
0
BLOCK
5
20
100
AcDbEntity
100
AcDbBlockBegin
2
*MODEL_SPACE
0
ENDBLK
5
21
100
AcDbEntity
100
AcDbBlockEnd
0
BLOCK
5
1C
100
AcDbEntity
100
AcDbBlockBegin
2
*PAPER_SPACE
0
ENDBLK
5
1D
100
AcDbEntity
100
AcDbBlockEnd
0
ENDSEC
0
SECTION
2
ENTITIES
0
CIRCLE
5
100
100
AcDbEntity
8
0
100
AcDbCircle
10
-13.480537644006244
20
-16.566240543326863
30
0
40
1.6999999999999993
210
0
220
0
230
1
0
CIRCLE
5
101
100
AcDbEntity
8
0
100
AcDbCircle
10
-13.480537644006251
20
17.23375945667313
30
0
40
1.6999999999999993
210
0
220
0
230
1
0
CIRCLE
5
102
100
AcDbEntity
8
0
100
AcDbCircle
10
16.519462355993735
20
-16.566240543326856
30
0
40
1.7000000000000015
210
0
220
0
230
1
0
CIRCLE
5
103
100
AcDbEntity
8
0
100
AcDbCircle
10
16.519462355993749
20
17.233759456673358
30
0
40
1.6999999999999993
210
0
220
0
230
1
0
LWPOLYLINE
5
104
100
AcDbEntity
8
0
100
AcDbPolyline
90
4
70
1
43
0.0
10
37.019462355993753
20
5.3337594566731328
10
37.019462355993753
20
-4.6662405433268681
42
-0.99999999999999989
10
32.019462355993753
20
-4.6662405433268663
10
32.019462355993753
20
5.3337594566731328
42
-0.99999999999999989
0
CIRCLE
5
105
100
AcDbEntity
8
0
100
AcDbCircle
10
-36.574438061485033
20
-1.0010490297946375
30
0
40
0.84999999999999964
210
0
220
0
230
1
0
CIRCLE
5
106
100
AcDbEntity
8
0
100
AcDbCircle
10
-38.201537644006258
20
0.32656045667313172
30
0
40
0.84999999999999964
210
0
220
0
230
1
0
CIRCLE
5
107
100
AcDbEntity
8
0
100
AcDbCircle
10
-38.961367874667253
20
-1.6311570971567459
30
0
40
0.84999999999999964
210
0
220
0
230
1
0
CIRCLE
5
108
100
AcDbEntity
8
0
100
AcDbCircle
10
-36.43610456826638
20
1.4637702240791346
30
0
40
0.84999999999999964
210
0
220
0
230
1
0
CIRCLE
5
109
100
AcDbEntity
8
0
100
AcDbCircle
10
-38.737539580856982
20
2.3570042317361732
30
0
40
0.84999999999999964
210
0
220
0
230
1
0
CIRCLE
5
110
100
AcDbEntity
8
0
100
AcDbCircle
10
-40.29823813475565
20
0.44423395450173458
30
0
40
0.84999999999999964
210
0
220
0
230
1
0
LWPOLYLINE
5
111
100
AcDbEntity
8
0
100
AcDbPolyline
90
32
70
1
43
0.0
10
-45.834777167721782
20
-6.2843171629959693
42
0.41421356237309453
10
-48.579798907754991
20
-9.0392864272065534
10
-48.571660024337156
20
-13.539279067042393
42
0.41421356237309453
10
-45.816690760126576
20
-16.284300807075613
10
-41.316698120290738
20
-16.276161923657767
42
0.41421356237309548
10
-38.571676380257514
20
-13.521192659447186
10
-38.579815263675371
20
-9.0212000196113458
42
0.41421356237309648
10
-41.334784527885951
20
-6.2761782795781258
10
-41.585784117352347
20
-6.2766322484087649
42
-0.41421356237309476
10
-42.73686036628979
20
-5.1297122559367017
10
-42.745362786500287
20
-0.4287199448548662
42
-0.4142135623730947
10
-42.495815355588171
20
-0.17826819356299523
10
-42.395815519147405
20
-0.17808732948704042
42
-0.41421356237306811
10
-42.145363767855535
20
-0.42763476039915349
10
-42.13674740327717
20
-5.1916269684386958
42
0.4142135623730937
10
-41.649869198765757
20
-5.6767471741318385
10
-41.24286986445172
20
-5.676011057342718
42
-0.41421356237309637
10
-37.979984448621231
20
-8.9271149872656927
10
-37.971509158022123
20
-13.61310732288141
42
-0.41421356237309442
10
-41.222613087945092
20
-16.875992738711908
10
-45.908605423560793
20
-16.884468029311023
42
-0.41421356237309598
10
-49.171490839391296
20
-13.633364099388043
10
-49.179966129990405
20
-8.9473717637723258
42
-0.4142135623730967
10
-45.928862200067428
20
-5.6844863479418271
10
-45.521862865753391
20
-5.6837502311527022
42
0.4142135623730957
10
-45.036742660060241
20
-5.1968720266413051
10
-45.045359024638607
20
-0.43287981860176461
42
-0.41421356237309476
10
-44.795811593726491
20
-0.18242806730989339
10
-44.695811757285711
20
-0.18224720323393828
42
-0.414213562373068
10
-44.445360005993841
20
-0.43179463414605129
10
-44.436857585783315
20
-5.1327869452278847
42
-0.41421356237309531
10
-45.583777578255379
20
-6.2838631941653293
0
LWPOLYLINE
5
112
100
AcDbEntity
8
0
100
AcDbPolyline
90
32
70
1
43
0.0
10
-48.59693764400626
20
9.9127604566731176
42
0.41421356237309509
10
-45.84693764400626
20
7.1627604566731176
10
-45.595937644006256
20
7.1627604566731122
42
-0.41421356237309359
10
-44.446937644006255
20
6.0137604566731131
10
-44.446937644006262
20
1.3127604566731166
42
-0.4142135623731048
10
-44.696937644006276
20
1.0627604566731177
10
-44.796937644006256
20
1.062760456673123
42
-0.41421356237310542
10
-45.046937644006263
20
1.3127604566731177
10
-45.046937644006263
20
6.0767604566731181
42
0.41421356237309509
10
-45.532937644006267
20
6.5627604566731179
10
-45.939937644006257
20
6.5627604566731197
42
-0.4142135623730962
10
-49.196937644006262
20
9.8197604566731194
10
-49.196937644006262
20
14.505760456673118
42
-0.41421356237309181
10
-45.939937644006257
20
17.762760456673121
10
-41.253937644006271
20
17.76276045667311
42
-0.4142135623730962
10
-37.996937644006273
20
14.505760456673116
10
-37.99693764400628
20
9.8197604566731194
42
-0.41421356237309537
10
-41.253937644006271
20
6.5627604566731188
10
-41.660937644006268
20
6.5627604566731179
42
0.41421356237309437
10
-42.146937644006272
20
6.076760456673119
10
-42.146937644006279
20
1.3127604566731166
42
-0.41421356237310508
10
-42.396937644006286
20
1.0627604566731172
10
-42.496937644006252
20
1.0627604566731221
42
-0.41421356237310508
10
-42.746937644006252
20
1.3127604566731166
10
-42.74693764400628
20
6.013760456673114
42
-0.41421356237309337
10
-41.597937644006265
20
7.1627604566731176
10
-41.346937644006267
20
7.1627604566731176
42
0.41421356237309509
10
-38.596937644006267
20
9.9127604566731176
10
-38.596937644006267
20
14.412760456673119
42
0.41421356237309509
10
-41.346937644006267
20
17.162760456673119
10
-45.84693764400626
20
17.162760456673119
42
0.41421356237309509
10
-48.59693764400626
20
14.412760456673119
0
LWPOLYLINE
5
113
100
AcDbEntity
8
0
100
AcDbPolyline
90
8
70
1
43
0.0
10
48.419462355993744
20
-24.566240543326863
42
0.4142135623730952
10
54.419462355993751
20
-18.566240543326856
10
54.419462355993744
20
19.23375945667313
42
0.41421356237309515
10
48.419462355993744
20
25.23375945667313
10
-57.380537644006267
20
25.23375945667313
42
0.4142135623730952
10
-63.380537644006267
20
19.23375945667313
10
-63.38053764400626
20
-18.566240543326856
42
0.41421356237309653
10
-57.38053764400626
20
-24.566240543326856
0
CIRCLE
5
114
100
AcDbEntity
8
0
100
AcDbCircle
10
49.31946235599375
20
20.633759456673122
30
0
40
1.6999999999999993
210
0
220
0
230
1
0
CIRCLE
5
115
100
AcDbEntity
8
0
100
AcDbCircle
10
49.31946235599375
20
-19.966240543326865
30
0
40
1.6999999999999993
210
0
220
0
230
1
0
CIRCLE
5
116
100
AcDbEntity
8
0
100
AcDbCircle
10
-58.280537644006259
20
20.633759456673133
30
0
40
1.6999999999999993
210
0
220
0
230
1
0
CIRCLE
5
117
100
AcDbEntity
8
0
100
AcDbCircle
10
-58.280537644006259
20
-19.966240543326865
30
0
40
1.6999999999999993
210
0
220
0
230
1
0
ENDSEC
0
SECTION
2
OBJECTS
0
DICTIONARY
5
C
100
AcDbDictionary
3
ACAD_GROUP
350
D
3
ACAD_MLINESTYLE
350
17
0
DICTIONARY
5
D
100
AcDbDictionary
0
DICTIONARY
5
1A
330
C
100
AcDbDictionary
0
DICTIONARY
5
17
100
AcDbDictionary
0
ENDSEC
0
EOF
