0
SECTION
2
HEADER
9
$INSUNITS
70
4
9
$ACADVER
1
AC1014
9
$HANDSEED
5
FFFF
0
ENDSEC
0
SECTION
2
TABLES
0
TABLE
2
VPORT
5
8
100
AcDbSymbolTable
0
ENDTAB
0
TABLE
2
LTYPE
5
5
100
AcDbSymbolTable
0
LTYPE
5
14
100
AcDbSymbolTableRecord
100
AcDbLinetypeTableRecord
2
BYBLOCK
70
0
0
LTYPE
5
15
100
AcDbSymbolTableRecord
100
AcDbLinetypeTableRecord
2
BYLAYER
70
0
0
ENDTAB
0
TABLE
2
LAYER
5
2
100
AcDbSymbolTable
70
2
0
LAYER
5
50
100
AcDbSymbolTableRecord
100
AcDbLayerTableRecord
2
0
70
0
6
CONTINUOUS
0
ENDTAB
0
TABLE
2
STYLE
5
3
100
AcDbSymbolTable
70
1
0
STYLE
5
11
100
AcDbSymbolTableRecord
100
AcDbTextStyleTableRecord
2
STANDARD
70
0
0
ENDTAB
0
TABLE
2
VIEW
5
6
100
AcDbSymbolTable
70
0
0
ENDTAB
0
TABLE
2
UCS
5
7
100
AcDbSymbolTable
70
0
0
ENDTAB
0
TABLE
2
APPID
5
9
100
AcDbSymbolTable
70
2
0
APPID
5
12
100
AcDbSymbolTableRecord
100
AcDbRegAppTableRecord
2
ACAD
70
0
0
ENDTAB
0
TABLE
2
DIMSTYLE
5
A
100
AcDbSymbolTable
70
1
0
ENDTAB
0
TABLE
2
BLOCK_RECORD
5
1
100
AcDbSymbolTable
70
1
0
BLOCK_RECORD
5
1F
100
AcDbSymbolTableRecord
100
AcDbBlockTableRecord
2
*MODEL_SPACE
0
BLOCK_RECORD
5
1B
100
AcDbSymbolTableRecord
100
AcDbBlockTableRecord
2
*PAPER_SPACE
0
ENDTAB
0
ENDSEC
0
SECTION
2
BLOCKS
0
BLOCK
5
20
100
AcDbEntity
100
AcDbBlockBegin
2
*MODEL_SPACE
0
ENDBLK
5
21
100
AcDbEntity
100
AcDbBlockEnd
0
BLOCK
5
1C
100
AcDbEntity
100
AcDbBlockBegin
2
*PAPER_SPACE
0
ENDBLK
5
1D
100
AcDbEntity
100
AcDbBlockEnd
0
ENDSEC
0
SECTION
2
ENTITIES
0
LWPOLYLINE
5
100
100
AcDbEntity
8
0
100
AcDbPolyline
90
24
70
1
43
0.0
10
48
20
7.8500000000000032
42
0.41421356237309409
10
50
20
9.8500000000000032
10
50
20
20.999999999999996
42
0.41421356237309243
10
48.000000000000007
20
23
10
-48.000000000000007
20
23
42
0.41421356237309243
10
-50.000000000000007
20
20.999999999999996
10
-50
20
7.9999999999999982
42
0.41421356237309437
10
-48.000000000000007
20
6.0000000000000009
10
-45
20
6.0000000000000018
42
-0.41421356237309515
10
-43
20
3.9999999999999996
10
-43
20
-4.0000000000000027
42
-0.41421356237309509
10
-45
20
-6.0000000000000036
10
-48
20
-6.0000000000000036
42
0.41421356237309409
10
-50
20
-8.0000000000000036
10
-50
20
-21.000000000000007
42
0.41421356237309243
10
-48.000000000000007
20
-23.000000000000007
10
48.000000000000007
20
-23.000000000000007
42
0.41421356237309243
10
50.000000000000007
20
-21.000000000000007
10
50
20
-9.8499999999999979
42
0.4142135623730947
10
48.000000000000007
20
-7.8499999999999996
10
37.300000000000004
20
-7.8499999999999996
42
-0.41421356237309492
10
35.300000000000004
20
-5.8499999999999988
10
35.300000000000004
20
5.8500000000000005
42
-0.41421356237309515
10
37.300000000000004
20
7.8500000000000014
0
LWPOLYLINE
5
101
100
AcDbEntity
8
0
100
AcDbPolyline
90
8
70
1
43
0.0
10
2.0000000000000009
20
-7.2999999999999998
10
3.0000000000000004
20
-7.2999999999999998
42
-0.41421356237309509
10
5
20
-9.2999999999999989
10
5.0000000000000018
20
-18.300000000000004
42
-0.41421356237309515
10
3.0000000000000018
20
-20.300000000000004
10
2.0000000000000013
20
-20.300000000000004
42
-0.41421356237309509
10
1.3877787807814457e-15
20
-18.300000000000001
10
1.1102230246251565e-15
20
-9.2999999999999989
42
-0.41421356237309509
0
CIRCLE
5
102
100
AcDbEntity
8
0
100
AcDbCircle
10
-47.300000000000004
20
-20.300000000000004
30
0
40
1.6999999999999993
210
0
220
0
230
1
0
CIRCLE
5
103
100
AcDbEntity
8
0
100
AcDbCircle
10
47.300000000000004
20
-20.300000000000004
30
0
40
1.6999999999999993
210
0
220
0
230
1
0
LWPOLYLINE
5
104
100
AcDbEntity
8
0
100
AcDbPolyline
90
8
70
1
43
0.0
10
3.0000000000000004
20
7.2999999999999998
10
2
20
7.2999999999999998
42
-0.41421356237309509
10
0
20
9.2999999999999989
10
5.5511151231257827e-16
20
18.300000000000004
42
-0.41421356237309509
10
2.0000000000000004
20
20.300000000000004
10
3
20
20.300000000000004
42
-0.41421356237309509
10
5
20
18.300000000000001
10
5
20
9.2999999999999989
42
-0.41421356237309509
0
CIRCLE
5
105
100
AcDbEntity
8
0
100
AcDbCircle
10
47.300000000000004
20
20.300000000000004
30
0
40
1.6999999999999993
210
0
220
0
230
1
0
CIRCLE
5
106
100
AcDbEntity
8
0
100
AcDbCircle
10
-47.300000000000004
20
20.300000000000004
30
0
40
1.6999999999999993
210
0
220
0
230
1
0
ENDSEC
0
SECTION
2
OBJECTS
0
DICTIONARY
5
C
100
AcDbDictionary
3
ACAD_GROUP
350
D
3
ACAD_MLINESTYLE
350
17
0
DICTIONARY
5
D
100
AcDbDictionary
0
DICTIONARY
5
1A
330
C
100
AcDbDictionary
0
DICTIONARY
5
17
100
AcDbDictionary
0
ENDSEC
0
EOF
